<?xml version="1.0" encoding="UTF-8" standalone="no"?>
<!-- Created with Inkscape (http://www.inkscape.org/) -->

<svg
   xmlns:dc="http://purl.org/dc/elements/1.1/"
   xmlns:cc="http://creativecommons.org/ns#"
   xmlns:rdf="http://www.w3.org/1999/02/22-rdf-syntax-ns#"
   xmlns:svg="http://www.w3.org/2000/svg"
   xmlns="http://www.w3.org/2000/svg"
   xmlns:xlink="http://www.w3.org/1999/xlink"
   xmlns:sodipodi="http://sodipodi.sourceforge.net/DTD/sodipodi-0.dtd"
   xmlns:inkscape="http://www.inkscape.org/namespaces/inkscape"
   width="750"
   height="750"
   viewBox="0 0 750.00003 750.00002"
   id="svg3938"
   version="1.1"
   inkscape:version="0.91 r13725"
   sodipodi:docname="fire_elements.svg">
  <defs
     id="defs3940">
    <linearGradient
       inkscape:collect="always"
       xlink:href="#linearGradient5301"
       id="linearGradient3910"
       x1="302.85715"
       y1="962.36218"
       x2="475"
       y2="790.21936"
       gradientUnits="userSpaceOnUse"
       gradientTransform="matrix(2.0420168,0,0,2.0420168,-591.17648,-1108.7513)" />
    <linearGradient
       id="linearGradient5301"
       inkscape:collect="always">
      <stop
         id="stop5303"
         offset="0"
         style="stop-color:#e65100;stop-opacity:1" />
      <stop
         id="stop5305"
         offset="1"
         style="stop-color:#ffb74d;stop-opacity:1" />
    </linearGradient>
    <linearGradient
       inkscape:collect="always"
       xlink:href="#linearGradient5301"
       id="linearGradient3918"
       x1="328.57144"
       y1="628.07648"
       x2="592.14288"
       y2="891.64789"
       gradientUnits="userSpaceOnUse"
       gradientTransform="matrix(2.0420168,0,0,2.0420168,-591.17648,-1108.7513)" />
    <linearGradient
       inkscape:collect="always"
       xlink:href="#linearGradient5301"
       id="linearGradient3920"
       x1="614.44031"
       y1="914.50488"
       x2="332.8577"
       y2="635.93347"
       gradientUnits="userSpaceOnUse"
       gradientTransform="matrix(2.0420168,0,0,2.0420168,-591.17648,-1108.7513)" />
    <linearGradient
       inkscape:collect="always"
       xlink:href="#linearGradient5301"
       id="linearGradient5497"
       x1="-1400.3417"
       y1="1278.636"
       x2="-1400.3417"
       y2="4638.6357"
       gradientUnits="userSpaceOnUse"
       gradientTransform="matrix(0.1307395,0,0,0.1307395,583.78279,90.958887)" />
  </defs>
  <sodipodi:namedview
     id="base"
     pagecolor="#ffffff"
     bordercolor="#666666"
     borderopacity="1.0"
     inkscape:pageopacity="0.0"
     inkscape:pageshadow="2"
     inkscape:zoom="0.24748737"
     inkscape:cx="1114.1497"
     inkscape:cy="803.44961"
     inkscape:document-units="px"
     inkscape:current-layer="layer1"
     showgrid="false"
     showguides="true"
     inkscape:guide-bbox="true"
     inkscape:window-width="954"
     inkscape:window-height="1028"
     inkscape:window-x="960"
     inkscape:window-y="0"
     inkscape:window-maximized="0"
     fit-margin-top="5"
     fit-margin-left="5"
     fit-margin-right="5"
     fit-margin-bottom="5"
     units="px" />
  <metadata
     id="metadata3943">
    <rdf:RDF>
      <cc:Work
         rdf:about="">
        <dc:format>image/svg+xml</dc:format>
        <dc:type
           rdf:resource="http://purl.org/dc/dcmitype/StillImage" />
        <dc:title></dc:title>
      </cc:Work>
    </rdf:RDF>
  </metadata>
  <g
     inkscape:label="1. réteg"
     inkscape:groupmode="layer"
     id="layer1"
     transform="translate(154.50679,-677.3232)">
    <g
       transform="translate(-148.42186,530.17961)"
       id="g5499">
      <g
         id="g5307">
        <path
           style="opacity:1;fill:url(#linearGradient3910);fill-opacity:1;fill-rule:nonzero;stroke:none;stroke-width:1.5;stroke-linecap:round;stroke-linejoin:round;stroke-miterlimit:4;stroke-dasharray:none;stroke-opacity:1"
           d="M 368.57142,173.79079 A 347.14286,347.14286 0 0 0 21.42856,520.93365 347.14286,347.14286 0 0 0 368.57142,868.0765 347.14286,347.14286 0 0 0 715.71427,520.93365 347.14286,347.14286 0 0 0 715.19979,506.3803 323.80552,322.34695 0 0 1 391.90703,818.48582 323.80552,322.34695 0 0 1 68.103796,496.13829 323.80552,322.34695 0 0 1 378.23112,174.27338 a 347.14286,347.14286 0 0 0 -9.6597,-0.48259 z"
           id="path3881"
           inkscape:connector-curvature="0" />
        <path
           style="opacity:1;fill:url(#linearGradient3918);fill-opacity:1;fill-rule:nonzero;stroke:none;stroke-width:1.5;stroke-linecap:round;stroke-linejoin:round;stroke-miterlimit:4;stroke-dasharray:none;stroke-opacity:1"
           d="m 394.86636,179.62569 a 315.01444,313.59544 0 0 0 -5.117,0.17949 A 296.09777,297.43759 74.975821 0 1 664.56414,398.61606 296.09777,297.43759 74.975821 0 1 454.04897,761.69223 296.09777,297.43759 74.975821 0 1 90.02358,552.82023 296.09777,297.43759 74.975821 0 1 80.371845,482.85322 315.01444,313.59544 0 0 0 79.849395,493.22285 315.01444,313.59544 0 0 0 394.86636,806.816 315.01444,313.59544 0 0 0 709.87937,493.22285 315.01444,313.59544 0 0 0 394.86636,179.62569 Z"
           id="ellipse3890"
           inkscape:connector-curvature="0" />
        <path
           style="opacity:1;fill:url(#linearGradient3920);fill-opacity:1;fill-rule:nonzero;stroke:none;stroke-width:1.5;stroke-linecap:round;stroke-linejoin:round;stroke-miterlimit:4;stroke-dasharray:none;stroke-opacity:1"
           d="M 377.48131,185.46061 A 288.64114,287.34092 0 0 0 88.839047,472.80268 288.64114,287.34092 0 0 0 377.48131,760.14076 288.64114,287.34092 0 0 0 386.88974,759.80973 272.59673,271.36878 0 0 1 120.92901,488.77188 272.59673,271.36878 0 0 1 393.52629,217.403 272.59673,271.36878 0 0 1 665.79254,479.41132 288.64114,287.34092 0 0 0 666.12357,472.80268 288.64114,287.34092 0 0 0 377.48131,185.46061 Z"
           id="ellipse3897"
           inkscape:connector-curvature="0" />
      </g>
      <path
         inkscape:connector-curvature="0"
         id="path5475"
         d="m 356.23119,257.62085 c 0,0 2.267,2.83145 5.5496,8.22866 3.2856,5.40227 7.419,13.32696 10.3682,23.38144 2.6918,9.21525 4.2966,19.99873 3.3461,31.032 -0.7368,9.64988 -3.3153,19.391 -7.3134,29.4049 -3.6347,9.07888 -8.5413,17.86764 -14.3535,26.71248 -5.5135,8.42591 -11.9196,16.64879 -18.939,25.42321 -7.2045,8.97207 -14.0209,16.90039 -22.0272,26.80312 -5.7038,7.02773 -11.4941,14.38302 -17.1601,22.23822 -1.9912,2.76042 -3.9775,5.5969 -5.9487,8.50984 -7.56003,11.12785 -14.80458,23.42754 -21.15627,36.84911 -6.49391,13.66728 -11.64213,28.34585 -15.00415,43.65933 -3.53185,15.92116 -4.61759,32.27115 -3.19259,48.20713 1.36161,14.43556 4.94011,27.67708 9.87697,39.38709 5.51274,13.1011 12.66317,24.15535 20.30034,33.14626 9.3376,10.97569 19.2917,18.72243 27.9882,24.07468 9.4981,5.84924 17.8811,9.08253 23.3916,10.86444 5.6194,1.81707 8.7473,2.37524 8.7473,2.37524 0,0 -2.0983,-2.41801 -5.4262,-7.0145 -3.3135,-4.57663 -7.7969,-11.37631 -11.9087,-20.0943 -3.7607,-7.97983 -7.1486,-17.44741 -9.0522,-27.92229 -1.5632,-8.55193 -2.134,-17.62066 -1.4752,-26.86672 0.5961,-8.24702 2.1636,-16.47919 4.7493,-24.24757 1.8714,-5.81908 4.3659,-11.57459 7.2946,-17.37841 0.2072,0.52246 0.4184,1.04064 0.6345,1.5533 3.288,7.81399 7.5526,14.40704 12.1077,19.76953 5.5693,6.54626 11.5064,11.1668 16.6933,14.3591 5.665,3.4887 10.6647,5.41696 13.9513,6.47978 3.3516,1.08377 5.2174,1.41693 5.2174,1.41693 0,0 -1.2515,-1.44242 -3.2364,-4.1839 -1.9763,-2.72969 -4.6503,-6.78517 -7.1028,-11.98488 -2.2429,-4.75948 -4.2637,-10.40636 -5.3991,-16.65398 -0.9323,-5.10068 -1.2729,-10.50934 -0.8799,-16.024 0.3555,-4.9188 1.2906,-9.82893 2.8328,-14.4623 1.6601,-5.16183 4.1391,-10.23941 7.0755,-15.45332 2.8574,-5.05448 6.2762,-10.03707 9.9922,-15.23725 3.6891,-5.15212 7.7793,-10.43325 11.9539,-16.10777 1.0949,-1.48176 2.1968,-2.98478 3.3009,-4.51461 3.1307,-4.33763 6.3488,-8.98726 9.5116,-13.93552 2.5537,-3.9789 5.0547,-8.15955 7.4371,-12.53515 0.6356,7.13428 1.7039,14.15249 3.1513,20.97196 2.4027,11.44223 5.5978,22.20258 9.177,32.08965 2.6264,7.31 5.4193,14.15251 8.2111,20.47324 0.9844,2.22879 1.9767,4.41069 2.9681,6.55051 3.7769,8.20998 7.5896,15.6485 11.0038,22.72567 3.4201,7.10703 6.6443,13.73078 9.234,20.25313 2.6533,6.71361 4.951,13.08946 6.2955,19.44392 2.789,12.27556 1.9735,25.78896 -1.6647,37.91956 -3.7484,12.57693 -10.3058,22.75721 -15.9565,29.778 -5.6071,6.96647 -9.806,10.56691 -9.806,10.56691 0,0 5.396,0.81985 15.1933,-0.42265 9.5634,-1.21275 24.4249,-4.84648 39.8919,-15.58225 15.0373,-10.46499 30.3926,-27.5757 38.8365,-51.92091 4.2862,-12.60112 6.618,-26.00819 6.8187,-39.45372 0.2283,-12.91643 -1.1102,-25.60276 -3.7606,-37.60625 -2.5745,-11.77218 -6.067,-22.69846 -10.0488,-32.58501 -1.0352,-2.58758 -2.0967,-5.10707 -3.1776,-7.5566 -3.0752,-6.96937 -6.3526,-13.47904 -9.6313,-19.62343 -4.376,-8.24862 -8.8446,-15.86191 -12.8495,-22.97417 -4.1139,-7.34574 -7.9201,-14.005 -11.12,-20.6844 -3.3732,-6.97143 -6.2232,-13.76169 -8.1524,-20.7023 -2.1216,-7.63649 -3.3548,-14.98193 -3.191,-22.22112 0.076,-8.28487 2.1804,-16.38426 5.0804,-23.28031 3.1798,-7.53171 7.161,-13.35006 10.2988,-17.31915 3.1256,-3.95365 5.2255,-5.99412 5.2255,-5.99412 0,0 -2.8835,-0.2407 -8.2407,0.35444 -5.2348,0.58154 -13.4144,2.1392 -22.8005,6.60694 -8.6294,4.09569 -18.6828,10.85863 -27.5906,21.63612 -3.0567,3.73818 -5.9329,7.85041 -8.5481,12.29615 3.337,-14.87469 4.5462,-29.79716 3.762,-44.1394 -0.8824,-16.99802 -5.0044,-32.62834 -11.1545,-45.92021 -7.1638,-15.29921 -16.8352,-26.44125 -25.7068,-34.10051 -9.6431,-8.34097 -18.7953,-12.98206 -24.8224,-15.50056 -6.1616,-2.57477 -9.6709,-3.33845 -9.6709,-3.33845 z"
         style="fill:url(#linearGradient5497);fill-rule:evenodd;stroke:none;stroke-width:1px;stroke-linecap:butt;stroke-linejoin:miter;stroke-opacity:1" />
    </g>
  </g>
</svg>
