<?xml version="1.0" encoding="UTF-8" standalone="no"?>
<!-- Created with Inkscape (http://www.inkscape.org/) -->

<svg
   xmlns:dc="http://purl.org/dc/elements/1.1/"
   xmlns:cc="http://creativecommons.org/ns#"
   xmlns:rdf="http://www.w3.org/1999/02/22-rdf-syntax-ns#"
   xmlns:svg="http://www.w3.org/2000/svg"
   xmlns="http://www.w3.org/2000/svg"
   xmlns:xlink="http://www.w3.org/1999/xlink"
   xmlns:sodipodi="http://sodipodi.sourceforge.net/DTD/sodipodi-0.dtd"
   xmlns:inkscape="http://www.inkscape.org/namespaces/inkscape"
   width="750"
   height="750"
   viewBox="0 0 750.00003 750.00002"
   id="svg3938"
   version="1.1"
   inkscape:version="0.91 r13725"
   sodipodi:docname="water_elements.svg">
  <defs
     id="defs3940">
    <linearGradient
       inkscape:collect="always"
       xlink:href="#linearGradient3904"
       id="linearGradient3910-7"
       x1="302.85715"
       y1="962.36218"
       x2="475"
       y2="790.21936"
       gradientUnits="userSpaceOnUse"
       gradientTransform="matrix(2.0420168,0,0,2.0420168,-1508.3193,-1283.037)" />
    <linearGradient
       inkscape:collect="always"
       id="linearGradient3904">
      <stop
         style="stop-color:#0288d1;stop-opacity:1"
         offset="0"
         id="stop3906" />
      <stop
         style="stop-color:#b3e5fc;stop-opacity:1"
         offset="1"
         id="stop3908" />
    </linearGradient>
    <linearGradient
       inkscape:collect="always"
       xlink:href="#linearGradient3904"
       id="linearGradient3918-0"
       x1="328.57144"
       y1="628.07648"
       x2="592.14288"
       y2="891.64789"
       gradientUnits="userSpaceOnUse"
       gradientTransform="matrix(2.0420168,0,0,2.0420168,-1508.3193,-1283.037)" />
    <linearGradient
       inkscape:collect="always"
       xlink:href="#linearGradient3904"
       id="linearGradient3920-0"
       x1="614.44031"
       y1="914.50488"
       x2="332.8577"
       y2="635.93347"
       gradientUnits="userSpaceOnUse"
       gradientTransform="matrix(2.0420168,0,0,2.0420168,-1508.3193,-1283.037)" />
    <radialGradient
       inkscape:collect="always"
       xlink:href="#linearGradient4548"
       id="radialGradient4544"
       cx="-944.92383"
       cy="-435.92038"
       fx="-944.92383"
       fy="-435.92038"
       r="312.46155"
       gradientTransform="matrix(-0.25890652,1.8030938,-1.4875844,-0.21360419,-1742.3036,1199.1898)"
       gradientUnits="userSpaceOnUse" />
    <linearGradient
       id="linearGradient4548"
       inkscape:collect="always">
      <stop
         style="stop-color:#e1f5fe;stop-opacity:1"
         offset="0"
         id="stop4552" />
      <stop
         style="stop-color:#0288d1;stop-opacity:1"
         offset="1"
         id="stop4550" />
    </linearGradient>
    <radialGradient
       inkscape:collect="always"
       xlink:href="#linearGradient3925"
       id="radialGradient4682"
       gradientUnits="userSpaceOnUse"
       gradientTransform="matrix(0.73537201,-0.66863365,0.67914741,0.74693517,-702.52354,-127.75808)"
       cx="-493.04559"
       cy="455.03564"
       fx="-493.04559"
       fy="455.03564"
       r="210.90039" />
    <linearGradient
       id="linearGradient3925"
       inkscape:collect="always">
      <stop
         id="stop3927"
         offset="0"
         style="stop-color:#e1f5fe;stop-opacity:1" />
      <stop
         id="stop3929"
         offset="1"
         style="stop-color:#b3e5fc;stop-opacity:1" />
    </linearGradient>
    <filter
       inkscape:collect="always"
       style="color-interpolation-filters:sRGB"
       id="filter4529"
       x="-0.17334633"
       width="1.3466927"
       y="-0.091761068"
       height="1.1835221">
      <feGaussianBlur
         inkscape:collect="always"
         stdDeviation="30.465674"
         id="feGaussianBlur4531" />
    </filter>
    <pattern
       y="0"
       x="0"
       height="6"
       width="6"
       patternUnits="userSpaceOnUse"
       id="EMFhbasepattern" />
  </defs>
  <sodipodi:namedview
     id="base"
     pagecolor="#ffffff"
     bordercolor="#666666"
     borderopacity="1.0"
     inkscape:pageopacity="0.0"
     inkscape:pageshadow="2"
     inkscape:zoom="0.24748737"
     inkscape:cx="916.79483"
     inkscape:cy="803.44961"
     inkscape:document-units="px"
     inkscape:current-layer="layer1"
     showgrid="false"
     showguides="true"
     inkscape:guide-bbox="true"
     inkscape:window-width="954"
     inkscape:window-height="1028"
     inkscape:window-x="960"
     inkscape:window-y="0"
     inkscape:window-maximized="0"
     fit-margin-top="5"
     fit-margin-left="5"
     fit-margin-right="5"
     fit-margin-bottom="5"
     units="px" />
  <metadata
     id="metadata3943">
    <rdf:RDF>
      <cc:Work
         rdf:about="">
        <dc:format>image/svg+xml</dc:format>
        <dc:type
           rdf:resource="http://purl.org/dc/dcmitype/StillImage" />
        <dc:title></dc:title>
      </cc:Work>
    </rdf:RDF>
  </metadata>
  <g
     inkscape:label="1. réteg"
     inkscape:groupmode="layer"
     id="layer1"
     transform="translate(154.50679,-677.3232)">
    <g
       id="g4603"
       transform="translate(770.92403,707.81581)">
      <path
         style="opacity:1;fill:url(#linearGradient3910-7);fill-opacity:1;fill-rule:nonzero;stroke:none;stroke-width:1.5;stroke-linecap:round;stroke-linejoin:round;stroke-miterlimit:4;stroke-dasharray:none;stroke-opacity:1"
         d="M -548.57142,-0.49494286 A 347.14286,347.14286 0 0 0 -895.71424,346.64792 a 347.14286,347.14286 0 0 0 347.14282,347.14285 347.14286,347.14286 0 0 0 347.14285,-347.14285 347.14286,347.14286 0 0 0 -0.51448,-14.55335 323.80552,322.34695 0 0 1 -323.29276,312.10552 323.80552,322.34695 0 0 1 -323.80323,-322.34753 323.80552,322.34695 0 0 1 310.12732,-321.86491286 347.14286,347.14286 0 0 0 -9.6597,-0.48259 z"
         id="path3881-8"
         inkscape:connector-curvature="0" />
      <path
         style="opacity:1;fill:url(#linearGradient3918-0);fill-opacity:1;fill-rule:nonzero;stroke:none;stroke-width:1.5;stroke-linecap:round;stroke-linejoin:round;stroke-miterlimit:4;stroke-dasharray:none;stroke-opacity:1"
         d="m -522.27648,5.3399571 a 315.01444,313.59544 0 0 0 -5.117,0.17949 296.09777,297.43759 74.975821 0 1 274.81478,218.8108829 296.09777,297.43759 74.975821 0 1 -210.51517,363.07617 296.09777,297.43759 74.975821 0 1 -364.02539,-208.872 296.09777,297.43759 74.975821 0 1 -9.65173,-69.96701 315.01444,313.59544 0 0 0 -0.52245,10.36963 315.01444,313.59544 0 0 0 315.01696,313.59315 A 315.01444,313.59544 0 0 0 -207.26347,318.93712 315.01444,313.59544 0 0 0 -522.27648,5.3399571 Z"
         id="ellipse3890-4"
         inkscape:connector-curvature="0" />
      <path
         style="opacity:1;fill:url(#linearGradient3920-0);fill-opacity:1;fill-rule:nonzero;stroke:none;stroke-width:1.5;stroke-linecap:round;stroke-linejoin:round;stroke-miterlimit:4;stroke-dasharray:none;stroke-opacity:1"
         d="M -539.66153,11.174877 A 288.64114,287.34092 0 0 0 -828.30379,298.51695 288.64114,287.34092 0 0 0 -539.66153,585.85503 288.64114,287.34092 0 0 0 -530.2531,585.524 272.59673,271.36878 0 0 1 -796.21383,314.48615 272.59673,271.36878 0 0 1 -523.61655,43.117267 272.59673,271.36878 0 0 1 -251.3503,305.12559 288.64114,287.34092 0 0 0 -251.01927,298.51695 288.64114,287.34092 0 0 0 -539.66153,11.174877 Z"
         id="ellipse3897-1"
         inkscape:connector-curvature="0" />
      <g
         transform="matrix(0.56291071,0,0,0.56291071,-94.987253,86.732004)"
         id="g4686">
        <path
           style="opacity:1;fill:url(#radialGradient4544);fill-opacity:1;fill-rule:nonzero;stroke:none;stroke-width:1.5;stroke-linecap:round;stroke-linejoin:round;stroke-miterlimit:4;stroke-dasharray:none;stroke-opacity:1"
           d="m -1113.7365,-370.9642 c 98.995,-98.99495 557.38067,-193.94929 557.38067,-193.94929 0,0 -94.95434,458.3858 -193.94929,557.3807426 -98.99495,98.9949494 -282.39048,93.1628274 -369.49238,6.0609151 -87.1019,-87.1019097 -92.934,-270.4974177 6.061,-369.4923677 z"
           id="rect4535"
           inkscape:connector-curvature="0"
           sodipodi:nodetypes="zczaz"
           transform="matrix(0.70710678,-0.70710678,0.70710678,0.70710678,0,0)" />
        <path
           style="opacity:1;fill:url(#radialGradient4682);fill-opacity:1;fill-rule:nonzero;stroke:none;stroke-width:1.5;stroke-linecap:round;stroke-linejoin:round;stroke-miterlimit:4;stroke-dasharray:none;stroke-opacity:1;filter:url(#filter4529)"
           d="m -794.95285,1.4818638 c -0.0473,0.073342 -0.0929,0.142696 -0.14063,0.216797 73.08034,118.5463292 211.888,380.5962692 203.56446,489.9921892 -11.42857,150.20525 -129.52441,234.07366 -259.51368,248.35938 -28.61473,3.14473 -50.72972,5.24578 -73.89453,-0.99805 41.94796,30.15677 90.27739,48.29492 137.08008,48.29492 22.62036,0 45.59659,-4.24739 68.03906,-12.02734 95.04991,-38.34391 177.51563,-139.3368 177.51563,-249.24414 10e-6,-129.69722 -220.18889,-474.467354 -252.65039,-524.5937562 z"
           id="path4680"
           inkscape:connector-curvature="0" />
      </g>
    </g>
  </g>
</svg>
